<svg width="7" height="14" viewBox="0 0 7 14" fill="none" xmlns="http://www.w3.org/2000/svg">
<path d="M6.76822 12.3598C7.12179 12.7841 7.06446 13.4147 6.64018 13.7682C6.21591 14.1218 5.58534 14.0645 5.23178 13.6402L6.76822 12.3598ZM1 7L0.231778 7.64018C-0.07726 7.26934 -0.07726 6.73066 0.231778 6.35982L1 7ZM5.23178 0.359816C5.58534 -0.0644612 6.21591 -0.121785 6.64018 0.231779C7.06446 0.585343 7.12178 1.21591 6.76822 1.64018L5.23178 0.359816ZM5.23178 13.6402L0.231778 7.64018L1.76822 6.35982L6.76822 12.3598L5.23178 13.6402ZM0.231778 6.35982L5.23178 0.359816L6.76822 1.64018L1.76822 7.64018L0.231778 6.35982Z" fill="white"/>
</svg>
