<svg width="7" height="14" viewBox="0 0 7 14" fill="none" xmlns="http://www.w3.org/2000/svg">
<path d="M0.231779 12.3598C-0.121785 12.7841 -0.0644614 13.4147 0.359816 13.7682C0.784092 14.1218 1.41466 14.0645 1.76822 13.6402L0.231779 12.3598ZM6 7L6.76822 7.64018C7.07726 7.26934 7.07726 6.73066 6.76822 6.35982L6 7ZM1.76822 0.359816C1.41466 -0.0644612 0.784093 -0.121785 0.359817 0.231779C-0.0644604 0.585343 -0.121785 1.21591 0.23178 1.64018L1.76822 0.359816ZM1.76822 13.6402L6.76822 7.64018L5.23178 6.35982L0.231779 12.3598L1.76822 13.6402ZM6.76822 6.35982L1.76822 0.359816L0.23178 1.64018L5.23178 7.64018L6.76822 6.35982Z" fill="#E6E6E6"/>
</svg>
