<svg width="16" height="9" viewBox="0 0 16 9" fill="none" xmlns="http://www.w3.org/2000/svg">
<path d="M14.2929 8.70711C14.6834 9.09763 15.3166 9.09763 15.7071 8.70711C16.0976 8.31658 16.0976 7.68342 15.7071 7.29289L14.2929 8.70711ZM8 0.999999L8.70711 0.292893C8.31658 -0.0976318 7.68342 -0.0976317 7.29289 0.292892L8 0.999999ZM0.292893 7.29289C-0.0976311 7.68342 -0.0976311 8.31658 0.292893 8.70711C0.683417 9.09763 1.31658 9.09763 1.70711 8.70711L0.292893 7.29289ZM15.7071 7.29289L8.70711 0.292893L7.29289 1.70711L14.2929 8.70711L15.7071 7.29289ZM7.29289 0.292892L0.292893 7.29289L1.70711 8.70711L8.70711 1.70711L7.29289 0.292892Z" fill="#FEB39C"/>
</svg>
