<svg width="72" height="64" viewBox="0 0 72 64" fill="none" xmlns="http://www.w3.org/2000/svg">
<path fill-rule="evenodd" clip-rule="evenodd" d="M60.4444 35.5556H39.1111V28.4444H60.4444V35.5556ZM60.4444 49.7778H39.1111V42.6667H60.4444V49.7778ZM35.5556 14.2222C33.5964 14.2222 32 12.6258 32 10.6667C32 8.70756 33.5964 7.11111 35.5556 7.11111C37.5147 7.11111 39.1111 8.70756 39.1111 10.6667C39.1111 12.6258 37.5147 14.2222 35.5556 14.2222ZM10.6667 49.7778C10.6667 43.232 14.7876 39.1111 21.3333 39.1111C27.8791 39.1111 32 43.232 32 49.7778H10.6667ZM21.3333 21.3333C25.2587 21.3333 28.4444 24.5191 28.4444 28.4444C28.4444 32.3698 25.2587 35.5556 21.3333 35.5556C17.408 35.5556 14.2222 32.3698 14.2222 28.4444C14.2222 24.5191 17.408 21.3333 21.3333 21.3333ZM64 7.11111H45.5644C44.0924 2.97956 40.1849 0 35.5556 0C30.9262 0 27.0187 2.97956 25.5467 7.11111H7.11111C3.18933 7.11111 0 10.2969 0 14.2222V56.8889C0 60.8107 3.18933 64 7.11111 64H64C67.9218 64 71.1111 60.8107 71.1111 56.8889V14.2222C71.1111 10.2969 67.9218 7.11111 64 7.11111Z" fill="#E6E6E6"/>
</svg>
