<svg width="64" height="64" viewBox="0 0 64 64" fill="none" xmlns="http://www.w3.org/2000/svg">
<path fill-rule="evenodd" clip-rule="evenodd" d="M42.2193 1.19022C41.7233 0.448334 40.894 0 40.0006 0H29.334V16.0119H52.0939L42.2193 1.19022Z" fill="#E6E6E6"/>
<path fill-rule="evenodd" clip-rule="evenodd" d="M24.0002 0.000488281H13.3335C12.4429 0.000488281 11.6109 0.446153 11.1149 1.19071L1.24023 16.0124H24.0002V0.000488281Z" fill="#E6E6E6"/>
<path fill-rule="evenodd" clip-rule="evenodd" d="M47.9999 26.6804C49.8452 26.6804 51.6239 26.9393 53.3332 27.3823V21.3484H0V50.7036C0 52.1794 1.19466 53.3723 2.66666 53.3723H27.3679C26.9279 51.6617 26.6666 49.879 26.6666 48.0296C26.6666 36.2395 36.2186 26.6804 47.9999 26.6804Z" fill="#E6E6E6"/>
<path fill-rule="evenodd" clip-rule="evenodd" d="M55.9999 50.6567H45.3332V37.3134H50.6666V45.3194H55.9999V50.6567ZM48 31.9762C39.176 31.9762 32 39.1602 32 47.9881C32 56.816 39.176 64 48 64C56.824 64 63.9999 56.816 63.9999 47.9881C63.9999 39.1602 56.824 31.9762 48 31.9762Z" fill="#E6E6E6"/>
</svg>
