<svg width="64" height="64" viewBox="0 0 64 64" fill="none" xmlns="http://www.w3.org/2000/svg">
<path fill-rule="evenodd" clip-rule="evenodd" d="M15.8375 38.4C15.8375 32.5088 19.5463 28.8 25.4375 28.8C31.3287 28.8 35.0375 32.5088 35.0375 38.4H15.8375ZM25.4375 12.8C28.9735 12.8 31.8375 15.6672 31.8375 19.2C31.8375 22.7328 28.9735 25.6 25.4375 25.6C21.9047 25.6 19.0375 22.7328 19.0375 19.2C19.0375 15.6672 21.9047 12.8 25.4375 12.8ZM62.1248 53.0752L47.6384 38.5888C49.9424 34.6912 51.2 30.2464 51.2 25.6C51.2 18.7616 48.5344 12.3328 43.6992 7.5008C38.864 2.6656 32.4352 0 25.6 0C18.7616 0 12.3328 2.6656 7.5008 7.4976C2.6624 12.3328 0 18.7616 0 25.6C0 32.4384 2.6624 38.8672 7.5008 43.6992C12.3328 48.5376 18.7616 51.2 25.6 51.2C30.2464 51.2 34.6912 49.9424 38.5856 47.6384L53.0752 62.1248C54.2848 63.3344 55.8912 64 57.6 64C59.3088 64 60.9152 63.3344 62.1248 62.1248C64.6208 59.632 64.6208 55.5712 62.1248 53.0752Z" fill="#E6E6E6"/>
</svg>
