<svg width="68" height="64" viewBox="0 0 68 64" fill="none" xmlns="http://www.w3.org/2000/svg">
<path fill-rule="evenodd" clip-rule="evenodd" d="M37.0532 3.36842C37.0532 5.22779 35.5442 6.73684 33.6848 6.73684C31.8255 6.73684 30.3164 5.22779 30.3164 3.36842C30.3164 1.50905 31.8255 0 33.6848 0C35.5442 0 37.0532 1.50905 37.0532 3.36842Z" fill="#E6E6E6"/>
<path fill-rule="evenodd" clip-rule="evenodd" d="M67.368 6.73684H43.7891V0H67.368V6.73684Z" fill="#E6E6E6"/>
<path fill-rule="evenodd" clip-rule="evenodd" d="M37.0532 16.8421C37.0532 18.7015 35.5442 20.2105 33.6848 20.2105C31.8255 20.2105 30.3164 18.7015 30.3164 16.8421C30.3164 14.9827 31.8255 13.4737 33.6848 13.4737C35.5442 13.4737 37.0532 14.9827 37.0532 16.8421Z" fill="#E6E6E6"/>
<path fill-rule="evenodd" clip-rule="evenodd" d="M67.368 20.2105H43.7891V13.4737H67.368V20.2105Z" fill="#E6E6E6"/>
<path fill-rule="evenodd" clip-rule="evenodd" d="M37.0532 30.3158C37.0532 32.1752 35.5442 33.6842 33.6848 33.6842C31.8255 33.6842 30.3164 32.1752 30.3164 30.3158C30.3164 28.4564 31.8255 26.9474 33.6848 26.9474C35.5442 26.9474 37.0532 28.4564 37.0532 30.3158Z" fill="#E6E6E6"/>
<path fill-rule="evenodd" clip-rule="evenodd" d="M67.368 33.6842H43.7891V26.9474H67.368V33.6842Z" fill="#E6E6E6"/>
<path fill-rule="evenodd" clip-rule="evenodd" d="M37.0526 64H53.8947C55.7575 64 57.2632 62.4943 57.2632 60.6316V47.1579C57.2632 45.2951 55.7575 43.7894 53.8947 43.7894H40.4211C38.5583 43.7894 37.0526 45.2951 37.0526 47.1579V50.5263C23.5789 50.5263 13.6859 40.2122 13.4737 26.9473H16.8421C18.7048 26.9473 20.2105 25.4417 20.2105 23.5789V10.1052C20.2105 8.2425 18.7048 6.73682 16.8421 6.73682H3.36842C1.50568 6.73682 0 8.2425 0 10.1052V26.9473C0 47.4105 16.5895 64 37.0526 64Z" fill="#E6E6E6"/>
</svg>
