<svg width="16" height="10" viewBox="0 0 16 10" fill="none" xmlns="http://www.w3.org/2000/svg">
<path d="M8 0.230957C4.94303 0.230957 2.17081 1.90345 0.125192 4.62003C-0.0417306 4.8426 -0.0417306 5.15353 0.125192 5.37609C2.17081 8.09595 4.94303 9.76844 8 9.76844C11.057 9.76844 13.8292 8.09595 15.8748 5.37937C16.0417 5.1568 16.0417 4.84587 15.8748 4.62331C13.8292 1.90345 11.057 0.230957 8 0.230957ZM8.21929 8.35778C6.19004 8.48543 4.51427 6.81293 4.64191 4.78041C4.74665 3.10464 6.10494 1.74635 7.78071 1.64161C9.80996 1.51397 11.4857 3.18646 11.3581 5.21899C11.2501 6.89149 9.89179 8.24978 8.21929 8.35778ZM8.11783 6.80639C7.02465 6.87512 6.1213 5.97505 6.19331 4.88187C6.24895 3.97853 6.9821 3.24865 7.88545 3.18974C8.97862 3.12101 9.88197 4.02108 9.80996 5.11425C9.75105 6.02087 9.0179 6.75075 8.11783 6.80639Z" fill="white"/>
</svg>
