<svg width="92" height="32" viewBox="0 0 92 32" fill="none" xmlns="http://www.w3.org/2000/svg">
<path d="M26.4624 0.6002L23.8965 12.1303H12.8602L15.457 0.6002H6.8629L0 31.3682H7.11021C7.97581 31.3682 8.71774 30.768 8.90322 29.8835L11.1909 19.6486H22.1962L19.5685 31.3366H26.6478C27.5134 31.3366 28.2863 30.7048 28.4718 29.8519L35.0255 0.568611H26.4624V0.6002Z" fill="#FEB39C"/>
<path d="M76.0175 7.73939C76.6357 7.36032 77.4395 7.17078 78.4288 7.17078C80.84 7.17078 83.0658 7.86575 85.1371 9.25568C85.9099 9.76111 86.8992 9.66634 87.5175 9.00296L91.8763 4.32774C91.9382 4.26456 91.9382 4.1382 91.8763 4.04344C89.0632 1.42152 85.1989 0.094768 80.1908 0.094768C76.543 0.094768 73.4207 1.01086 70.8548 2.84304C68.289 4.67522 66.6814 7.04442 66.0322 9.95064C65.6922 11.4985 65.6613 12.8253 65.9704 13.9625C66.2796 15.0681 66.9288 15.9842 67.9489 16.7108C68.9382 17.4373 70.0202 18.0059 71.1331 18.4166C72.246 18.8272 73.7298 19.2695 75.4919 19.7117C77.4395 20.1856 78.7379 20.6278 79.3562 21.0385C79.9745 21.4492 80.1909 21.9862 80.0672 22.6496C79.7271 24.1027 78.3978 24.8608 76.0484 24.8608C72.5242 24.8608 69.4946 23.6604 66.9597 21.2912C66.8978 21.228 66.7742 21.228 66.7124 21.2912L66.836 21.1649C66.836 21.1649 64.1774 18.227 60.8078 18.227C57.4382 18.227 55.3669 20.5015 55.3669 20.5015C54.0685 21.7335 52.8011 22.6496 51.5954 23.2813C50.3898 23.9131 49.0296 24.229 47.5457 24.229C45.3817 24.229 43.8051 23.4393 42.754 21.8914C41.7339 20.3119 41.4556 18.3534 41.9812 16.0158C42.5067 13.7098 43.6196 11.7512 45.3508 10.1718C47.082 8.5923 49.0296 7.80257 51.1935 7.80257C53.2648 7.80257 54.965 8.56071 56.2634 10.0454C56.8817 10.7404 57.9019 10.9299 58.7056 10.3929L64.5793 6.53899C62.4462 2.17966 58.6129 0 53.1102 0C48.4422 0 44.2379 1.54788 40.4355 4.61204C36.633 7.67621 34.2527 11.4985 33.2325 15.9842C32.2123 20.5962 32.8924 24.387 35.3037 27.4195C37.715 30.4521 41.1465 31.9684 45.629 31.9684C48.8441 31.9684 51.6572 31.3682 54.0685 30.1362C55.4287 29.4413 56.758 28.5884 58.0255 27.6091C59.4785 26.535 60.4059 26.1244 60.8696 26.7878L60.9933 26.6614C60.9314 26.7246 60.9005 26.8509 60.9933 26.9457C64.0538 30.2626 68.4745 31.9052 74.2245 31.9052C78.0269 31.9052 81.2728 31.0207 83.9314 29.2201C86.59 27.4195 88.2903 24.9872 88.9704 21.8914C89.5887 19.1431 89.0941 17.0582 87.5175 15.6367C85.9409 14.2152 83.2822 13.078 79.6035 12.2251C77.5941 11.7512 76.2648 11.309 75.6465 10.8983C75.0282 10.4877 74.7809 9.91905 74.9355 9.22409C75.0282 8.62389 75.3992 8.11846 76.0175 7.73939Z" fill="#FEB39C"/>
</svg>
